<?xml version="1.0" encoding="utf-8" standalone="no"?>
<!DOCTYPE svg PUBLIC "-//W3C//DTD SVG 1.1//EN"
  "http://www.w3.org/Graphics/SVG/1.1/DTD/svg11.dtd">
<!-- Created with matplotlib (https://matplotlib.org/) -->
<svg height="720pt" version="1.1" viewBox="0 0 720 720" width="720pt" xmlns="http://www.w3.org/2000/svg" xmlns:xlink="http://www.w3.org/1999/xlink">
 <defs>
  <style type="text/css">
*{stroke-linecap:butt;stroke-linejoin:round;white-space:pre;}
  </style>
 </defs>
 <g id="figure_1">
  <g id="patch_1">
   <path d="M 0 720 
L 720 720 
L 720 0 
L 0 0 
z
" style="fill:#ffffff;"/>
  </g>
  <g id="axes_1">
   <g id="patch_2">
    <path d="M 90 170.813793 
L 648 170.813793 
L 648 86.4 
L 90 86.4 
z
" style="fill:#ffffff;"/>
   </g>
   <g id="matplotlib.axis_1">
    <g id="xtick_1">
     <g id="line2d_1">
      <defs>
       <path d="M 0 0 
L 0 3.5 
" id="m78c961748d" style="stroke:#000000;stroke-width:0.8;"/>
      </defs>
      <g>
       <use style="stroke:#000000;stroke-width:0.8;" x="211.562549" xlink:href="#m78c961748d" y="170.813793"/>
      </g>
     </g>
    </g>
    <g id="xtick_2">
     <g id="line2d_2">
      <g>
       <use style="stroke:#000000;stroke-width:0.8;" x="333.131176" xlink:href="#m78c961748d" y="170.813793"/>
      </g>
     </g>
    </g>
    <g id="xtick_3">
     <g id="line2d_3">
      <g>
       <use style="stroke:#000000;stroke-width:0.8;" x="454.699804" xlink:href="#m78c961748d" y="170.813793"/>
      </g>
     </g>
    </g>
    <g id="xtick_4">
     <g id="line2d_4">
      <g>
       <use style="stroke:#000000;stroke-width:0.8;" x="576.268431" xlink:href="#m78c961748d" y="170.813793"/>
      </g>
     </g>
    </g>
   </g>
   <g id="matplotlib.axis_2">
    <g id="ytick_1">
     <g id="line2d_5">
      <defs>
       <path d="M 0 0 
L -3.5 0 
" id="m0b0f46d69e" style="stroke:#000000;stroke-width:0.8;"/>
      </defs>
      <g>
       <use style="stroke:#000000;stroke-width:0.8;" x="90" xlink:href="#m0b0f46d69e" y="139.407129"/>
      </g>
     </g>
     <g id="text_1">
      <!-- 0.5 -->
      <defs>
       <path d="M 31.78125 66.40625 
Q 24.171875 66.40625 20.328125 58.90625 
Q 16.5 51.421875 16.5 36.375 
Q 16.5 21.390625 20.328125 13.890625 
Q 24.171875 6.390625 31.78125 6.390625 
Q 39.453125 6.390625 43.28125 13.890625 
Q 47.125 21.390625 47.125 36.375 
Q 47.125 51.421875 43.28125 58.90625 
Q 39.453125 66.40625 31.78125 66.40625 
z
M 31.78125 74.21875 
Q 44.046875 74.21875 50.515625 64.515625 
Q 56.984375 54.828125 56.984375 36.375 
Q 56.984375 17.96875 50.515625 8.265625 
Q 44.046875 -1.421875 31.78125 -1.421875 
Q 19.53125 -1.421875 13.0625 8.265625 
Q 6.59375 17.96875 6.59375 36.375 
Q 6.59375 54.828125 13.0625 64.515625 
Q 19.53125 74.21875 31.78125 74.21875 
z
" id="DejaVuSans-48"/>
       <path d="M 10.6875 12.40625 
L 21 12.40625 
L 21 0 
L 10.6875 0 
z
" id="DejaVuSans-46"/>
       <path d="M 10.796875 72.90625 
L 49.515625 72.90625 
L 49.515625 64.59375 
L 19.828125 64.59375 
L 19.828125 46.734375 
Q 21.96875 47.46875 24.109375 47.828125 
Q 26.265625 48.1875 28.421875 48.1875 
Q 40.625 48.1875 47.75 41.5 
Q 54.890625 34.8125 54.890625 23.390625 
Q 54.890625 11.625 47.5625 5.09375 
Q 40.234375 -1.421875 26.90625 -1.421875 
Q 22.3125 -1.421875 17.546875 -0.640625 
Q 12.796875 0.140625 7.71875 1.703125 
L 7.71875 11.625 
Q 12.109375 9.234375 16.796875 8.0625 
Q 21.484375 6.890625 26.703125 6.890625 
Q 35.15625 6.890625 40.078125 11.328125 
Q 45.015625 15.765625 45.015625 23.390625 
Q 45.015625 31 40.078125 35.4375 
Q 35.15625 39.890625 26.703125 39.890625 
Q 22.75 39.890625 18.8125 39.015625 
Q 14.890625 38.140625 10.796875 36.28125 
z
" id="DejaVuSans-53"/>
      </defs>
      <g transform="translate(67.096875 143.206347)scale(0.1 -0.1)">
       <use xlink:href="#DejaVuSans-48"/>
       <use x="63.623047" xlink:href="#DejaVuSans-46"/>
       <use x="95.410156" xlink:href="#DejaVuSans-53"/>
      </g>
     </g>
    </g>
    <g id="ytick_2">
     <g id="line2d_6">
      <g>
       <use style="stroke:#000000;stroke-width:0.8;" x="90" xlink:href="#m0b0f46d69e" y="102.500923"/>
      </g>
     </g>
     <g id="text_2">
      <!-- 1.0 -->
      <defs>
       <path d="M 12.40625 8.296875 
L 28.515625 8.296875 
L 28.515625 63.921875 
L 10.984375 60.40625 
L 10.984375 69.390625 
L 28.421875 72.90625 
L 38.28125 72.90625 
L 38.28125 8.296875 
L 54.390625 8.296875 
L 54.390625 0 
L 12.40625 0 
z
" id="DejaVuSans-49"/>
      </defs>
      <g transform="translate(67.096875 106.300142)scale(0.1 -0.1)">
       <use xlink:href="#DejaVuSans-49"/>
       <use x="63.623047" xlink:href="#DejaVuSans-46"/>
       <use x="95.410156" xlink:href="#DejaVuSans-48"/>
      </g>
     </g>
    </g>
   </g>
   <g id="line2d_7">
    <path clip-path="url(#p24e2dc9347)" d="M 90 90.236991 
L 93.647059 113.375705 
L 97.294118 113.657669 
L 100.941176 118.8393 
L 104.588235 116.126694 
L 108.235294 116.853008 
L 111.882353 116.954869 
L 115.529412 120.312596 
L 119.176471 118.478357 
L 122.823529 120.429958 
L 126.470588 121.367375 
L 130.117647 119.694786 
L 133.764706 121.548216 
L 137.411765 121.295039 
L 141.058824 120.880213 
L 144.705882 127.230295 
L 148.352941 120.065324 
L 152 121.831655 
L 155.647059 117.432436 
L 159.294118 120.759899 
L 162.941176 120.691254 
L 166.588235 121.696579 
L 170.235294 125.609375 
L 173.882353 122.308483 
L 177.529412 122.645068 
L 181.176471 123.552961 
L 184.823529 123.022988 
L 188.470588 121.532715 
L 192.117647 123.671799 
L 195.764706 123.213424 
L 199.411765 118.665103 
L 203.058824 122.415511 
L 206.705882 122.790479 
L 210.352941 125.449202 
L 214 125.384247 
L 217.647059 124.260084 
L 221.294118 126.186588 
L 224.941176 126.721728 
L 228.588235 124.601835 
L 232.235294 125.427058 
L 235.882353 125.290505 
L 239.529412 129.980546 
L 243.176471 126.622081 
L 246.823529 127.167555 
L 250.470588 126.906259 
L 254.117647 122.047188 
L 257.764706 126.399167 
L 261.411765 128.083567 
L 265.058824 132.290874 
L 268.705882 128.347815 
L 272.352941 130.567354 
L 276 131.552012 
L 279.647059 128.72352 
L 283.294118 130.043286 
L 286.941176 130.255128 
L 290.588235 130.838246 
L 294.235294 126.802183 
L 297.882353 132.77656 
L 301.529412 135.095008 
L 305.176471 132.967734 
L 308.823529 138.435019 
L 312.470588 135.247799 
L 316.117647 135.176201 
L 319.764706 138.511784 
L 323.411765 136.388939 
L 327.058824 137.975906 
L 334.352941 138.418042 
L 338 137.208995 
L 341.647059 138.909633 
L 345.294118 137.742659 
L 348.941176 140.07144 
L 352.588235 139.649971 
L 356.235294 140.078822 
L 359.882353 141.009596 
L 363.529412 140.277377 
L 370.823529 142.434176 
L 374.470588 142.37734 
L 378.117647 143.06601 
L 381.764706 143.0542 
L 385.411765 145.109137 
L 389.058824 143.815206 
L 392.705882 143.271208 
L 396.352941 145.340908 
L 400 145.242 
L 403.647059 143.845469 
L 407.294118 144.279486 
L 410.941176 146.470976 
L 414.588235 144.089788 
L 418.235294 148.68092 
L 421.882353 147.833554 
L 425.529412 145.771973 
L 429.176471 147.38625 
L 432.823529 151.056942 
L 436.470588 148.064586 
L 443.764706 150.270101 
L 447.411765 149.268467 
L 451.058824 150.91596 
L 454.705882 149.824274 
L 458.352941 155.369063 
L 462 150.99051 
L 469.294118 152.011336 
L 472.941176 151.228186 
L 476.588235 154.200612 
L 480.235294 153.153952 
L 483.882353 154.596985 
L 487.529412 154.865662 
L 491.176471 153.565087 
L 494.823529 154.146729 
L 498.470588 155.945538 
L 502.117647 154.377762 
L 505.764706 155.617072 
L 509.411765 155.50783 
L 513.058824 156.69621 
L 516.705882 155.059051 
L 520.352941 156.965625 
L 524 157.56572 
L 527.647059 162.865451 
L 531.294118 157.511837 
L 534.941176 157.997523 
L 538.588235 159.262667 
L 542.235294 159.48189 
L 545.882353 158.298677 
L 549.529412 158.180577 
L 553.176471 158.31344 
L 556.823529 158.050668 
L 560.470588 158.957084 
L 564.117647 161.023093 
L 571.411765 159.168926 
L 575.058824 159.756472 
L 578.705882 161.005378 
L 586 160.590553 
L 589.647059 161.924343 
L 593.294118 161.598092 
L 596.941176 159.467866 
L 600.588235 161.052618 
L 604.235294 161.332367 
L 607.882353 162.015132 
L 615.176471 161.822482 
L 618.823529 163.12158 
L 622.470588 165.273212 
L 626.117647 161.727264 
L 629.764706 163.226394 
L 633.411765 162.980599 
L 637.058824 166.976803 
L 640.705882 163.51131 
L 644.352941 164.121 
L 648 164.602257 
L 648 164.602257 
" style="fill:none;stroke:#1f77b4;stroke-linecap:square;stroke-width:1.5;"/>
   </g>
   <g id="patch_3">
    <path d="M 90 170.813793 
L 90 86.4 
" style="fill:none;stroke:#000000;stroke-linecap:square;stroke-linejoin:miter;stroke-width:0.8;"/>
   </g>
   <g id="patch_4">
    <path d="M 648 170.813793 
L 648 86.4 
" style="fill:none;stroke:#000000;stroke-linecap:square;stroke-linejoin:miter;stroke-width:0.8;"/>
   </g>
   <g id="patch_5">
    <path d="M 90 170.813793 
L 648 170.813793 
" style="fill:none;stroke:#000000;stroke-linecap:square;stroke-linejoin:miter;stroke-width:0.8;"/>
   </g>
   <g id="patch_6">
    <path d="M 90 86.4 
L 648 86.4 
" style="fill:none;stroke:#000000;stroke-linecap:square;stroke-linejoin:miter;stroke-width:0.8;"/>
   </g>
   <g id="legend_1">
    <g id="patch_7">
     <path d="M 576.984375 109.35625 
L 641 109.35625 
Q 643 109.35625 643 107.35625 
L 643 93.4 
Q 643 91.4 641 91.4 
L 576.984375 91.4 
Q 574.984375 91.4 574.984375 93.4 
L 574.984375 107.35625 
Q 574.984375 109.35625 576.984375 109.35625 
z
" style="fill:#ffffff;opacity:0.8;stroke:#cccccc;stroke-linejoin:miter;"/>
    </g>
    <g id="line2d_8">
     <path d="M 578.984375 99.498437 
L 598.984375 99.498437 
" style="fill:none;stroke:#1f77b4;stroke-linecap:square;stroke-width:1.5;"/>
    </g>
    <g id="line2d_9"/>
    <g id="text_3">
     <!-- D_loss -->
     <defs>
      <path d="M 19.671875 64.796875 
L 19.671875 8.109375 
L 31.59375 8.109375 
Q 46.6875 8.109375 53.6875 14.9375 
Q 60.6875 21.78125 60.6875 36.53125 
Q 60.6875 51.171875 53.6875 57.984375 
Q 46.6875 64.796875 31.59375 64.796875 
z
M 9.8125 72.90625 
L 30.078125 72.90625 
Q 51.265625 72.90625 61.171875 64.09375 
Q 71.09375 55.28125 71.09375 36.53125 
Q 71.09375 17.671875 61.125 8.828125 
Q 51.171875 0 30.078125 0 
L 9.8125 0 
z
" id="DejaVuSans-68"/>
      <path d="M 50.984375 -16.609375 
L 50.984375 -23.578125 
L -0.984375 -23.578125 
L -0.984375 -16.609375 
z
" id="DejaVuSans-95"/>
      <path d="M 9.421875 75.984375 
L 18.40625 75.984375 
L 18.40625 0 
L 9.421875 0 
z
" id="DejaVuSans-108"/>
      <path d="M 30.609375 48.390625 
Q 23.390625 48.390625 19.1875 42.75 
Q 14.984375 37.109375 14.984375 27.296875 
Q 14.984375 17.484375 19.15625 11.84375 
Q 23.34375 6.203125 30.609375 6.203125 
Q 37.796875 6.203125 41.984375 11.859375 
Q 46.1875 17.53125 46.1875 27.296875 
Q 46.1875 37.015625 41.984375 42.703125 
Q 37.796875 48.390625 30.609375 48.390625 
z
M 30.609375 56 
Q 42.328125 56 49.015625 48.375 
Q 55.71875 40.765625 55.71875 27.296875 
Q 55.71875 13.875 49.015625 6.21875 
Q 42.328125 -1.421875 30.609375 -1.421875 
Q 18.84375 -1.421875 12.171875 6.21875 
Q 5.515625 13.875 5.515625 27.296875 
Q 5.515625 40.765625 12.171875 48.375 
Q 18.84375 56 30.609375 56 
z
" id="DejaVuSans-111"/>
      <path d="M 44.28125 53.078125 
L 44.28125 44.578125 
Q 40.484375 46.53125 36.375 47.5 
Q 32.28125 48.484375 27.875 48.484375 
Q 21.1875 48.484375 17.84375 46.4375 
Q 14.5 44.390625 14.5 40.28125 
Q 14.5 37.15625 16.890625 35.375 
Q 19.28125 33.59375 26.515625 31.984375 
L 29.59375 31.296875 
Q 39.15625 29.25 43.1875 25.515625 
Q 47.21875 21.78125 47.21875 15.09375 
Q 47.21875 7.46875 41.1875 3.015625 
Q 35.15625 -1.421875 24.609375 -1.421875 
Q 20.21875 -1.421875 15.453125 -0.5625 
Q 10.6875 0.296875 5.421875 2 
L 5.421875 11.28125 
Q 10.40625 8.6875 15.234375 7.390625 
Q 20.0625 6.109375 24.8125 6.109375 
Q 31.15625 6.109375 34.5625 8.28125 
Q 37.984375 10.453125 37.984375 14.40625 
Q 37.984375 18.0625 35.515625 20.015625 
Q 33.0625 21.96875 24.703125 23.78125 
L 21.578125 24.515625 
Q 13.234375 26.265625 9.515625 29.90625 
Q 5.8125 33.546875 5.8125 39.890625 
Q 5.8125 47.609375 11.28125 51.796875 
Q 16.75 56 26.8125 56 
Q 31.78125 56 36.171875 55.265625 
Q 40.578125 54.546875 44.28125 53.078125 
z
" id="DejaVuSans-115"/>
     </defs>
     <g transform="translate(606.984375 102.998437)scale(0.1 -0.1)">
      <use xlink:href="#DejaVuSans-68"/>
      <use x="77.001953" xlink:href="#DejaVuSans-95"/>
      <use x="127.001953" xlink:href="#DejaVuSans-108"/>
      <use x="154.785156" xlink:href="#DejaVuSans-111"/>
      <use x="215.966797" xlink:href="#DejaVuSans-115"/>
      <use x="268.066406" xlink:href="#DejaVuSans-115"/>
     </g>
    </g>
   </g>
  </g>
  <g id="axes_2">
   <g id="patch_8">
    <path d="M 90 272.110345 
L 648 272.110345 
L 648 187.696552 
L 90 187.696552 
z
" style="fill:#ffffff;"/>
   </g>
   <g id="matplotlib.axis_3">
    <g id="xtick_5">
     <g id="line2d_10">
      <g>
       <use style="stroke:#000000;stroke-width:0.8;" x="211.562549" xlink:href="#m78c961748d" y="272.110345"/>
      </g>
     </g>
    </g>
    <g id="xtick_6">
     <g id="line2d_11">
      <g>
       <use style="stroke:#000000;stroke-width:0.8;" x="333.131176" xlink:href="#m78c961748d" y="272.110345"/>
      </g>
     </g>
    </g>
    <g id="xtick_7">
     <g id="line2d_12">
      <g>
       <use style="stroke:#000000;stroke-width:0.8;" x="454.699804" xlink:href="#m78c961748d" y="272.110345"/>
      </g>
     </g>
    </g>
    <g id="xtick_8">
     <g id="line2d_13">
      <g>
       <use style="stroke:#000000;stroke-width:0.8;" x="576.268431" xlink:href="#m78c961748d" y="272.110345"/>
      </g>
     </g>
    </g>
   </g>
   <g id="matplotlib.axis_4">
    <g id="ytick_3">
     <g id="line2d_14">
      <g>
       <use style="stroke:#000000;stroke-width:0.8;" x="90" xlink:href="#m0b0f46d69e" y="244.226295"/>
      </g>
     </g>
     <g id="text_4">
      <!-- 2 -->
      <defs>
       <path d="M 19.1875 8.296875 
L 53.609375 8.296875 
L 53.609375 0 
L 7.328125 0 
L 7.328125 8.296875 
Q 12.9375 14.109375 22.625 23.890625 
Q 32.328125 33.6875 34.8125 36.53125 
Q 39.546875 41.84375 41.421875 45.53125 
Q 43.3125 49.21875 43.3125 52.78125 
Q 43.3125 58.59375 39.234375 62.25 
Q 35.15625 65.921875 28.609375 65.921875 
Q 23.96875 65.921875 18.8125 64.3125 
Q 13.671875 62.703125 7.8125 59.421875 
L 7.8125 69.390625 
Q 13.765625 71.78125 18.9375 73 
Q 24.125 74.21875 28.421875 74.21875 
Q 39.75 74.21875 46.484375 68.546875 
Q 53.21875 62.890625 53.21875 53.421875 
Q 53.21875 48.921875 51.53125 44.890625 
Q 49.859375 40.875 45.40625 35.40625 
Q 44.1875 33.984375 37.640625 27.21875 
Q 31.109375 20.453125 19.1875 8.296875 
z
" id="DejaVuSans-50"/>
      </defs>
      <g transform="translate(76.6375 248.025514)scale(0.1 -0.1)">
       <use xlink:href="#DejaVuSans-50"/>
      </g>
     </g>
    </g>
    <g id="ytick_4">
     <g id="line2d_15">
      <g>
       <use style="stroke:#000000;stroke-width:0.8;" x="90" xlink:href="#m0b0f46d69e" y="204.321449"/>
      </g>
     </g>
     <g id="text_5">
      <!-- 3 -->
      <defs>
       <path d="M 40.578125 39.3125 
Q 47.65625 37.796875 51.625 33 
Q 55.609375 28.21875 55.609375 21.1875 
Q 55.609375 10.40625 48.1875 4.484375 
Q 40.765625 -1.421875 27.09375 -1.421875 
Q 22.515625 -1.421875 17.65625 -0.515625 
Q 12.796875 0.390625 7.625 2.203125 
L 7.625 11.71875 
Q 11.71875 9.328125 16.59375 8.109375 
Q 21.484375 6.890625 26.8125 6.890625 
Q 36.078125 6.890625 40.9375 10.546875 
Q 45.796875 14.203125 45.796875 21.1875 
Q 45.796875 27.640625 41.28125 31.265625 
Q 36.765625 34.90625 28.71875 34.90625 
L 20.21875 34.90625 
L 20.21875 43.015625 
L 29.109375 43.015625 
Q 36.375 43.015625 40.234375 45.921875 
Q 44.09375 48.828125 44.09375 54.296875 
Q 44.09375 59.90625 40.109375 62.90625 
Q 36.140625 65.921875 28.71875 65.921875 
Q 24.65625 65.921875 20.015625 65.03125 
Q 15.375 64.15625 9.8125 62.3125 
L 9.8125 71.09375 
Q 15.4375 72.65625 20.34375 73.4375 
Q 25.25 74.21875 29.59375 74.21875 
Q 40.828125 74.21875 47.359375 69.109375 
Q 53.90625 64.015625 53.90625 55.328125 
Q 53.90625 49.265625 50.4375 45.09375 
Q 46.96875 40.921875 40.578125 39.3125 
z
" id="DejaVuSans-51"/>
      </defs>
      <g transform="translate(76.6375 208.120668)scale(0.1 -0.1)">
       <use xlink:href="#DejaVuSans-51"/>
      </g>
     </g>
    </g>
   </g>
   <g id="line2d_16">
    <path clip-path="url(#p423814fc72)" d="M 90 268.273354 
L 93.647059 248.748711 
L 97.294118 250.588724 
L 100.941176 250.520486 
L 104.588235 251.838543 
L 108.235294 251.934714 
L 111.882353 251.45825 
L 115.529412 251.677727 
L 119.176471 249.917524 
L 122.823529 248.563952 
L 126.470588 246.555541 
L 130.117647 251.469823 
L 133.764706 246.689222 
L 137.411765 246.727531 
L 141.058824 249.691663 
L 144.705882 252.864098 
L 148.352941 248.557168 
L 152 249.257099 
L 155.647059 250.907164 
L 159.294118 249.99494 
L 162.941176 249.47059 
L 166.588235 248.354052 
L 170.235294 248.731552 
L 173.882353 248.838497 
L 177.529412 248.018852 
L 181.176471 247.854045 
L 184.823529 240.54228 
L 188.470588 248.284219 
L 192.117647 247.546777 
L 195.764706 248.179269 
L 199.411765 244.66445 
L 203.058824 247.113012 
L 206.705882 248.167697 
L 210.352941 245.590642 
L 214 245.930631 
L 217.647059 246.432634 
L 221.294118 245.869976 
L 224.941176 240.48362 
L 228.588235 245.920655 
L 232.235294 245.08824 
L 235.882353 244.096205 
L 243.176471 244.265003 
L 246.823529 243.804102 
L 250.470588 244.069469 
L 254.117647 242.932979 
L 257.764706 244.097402 
L 261.411765 242.381494 
L 265.058824 236.720992 
L 268.705882 241.624898 
L 272.352941 240.275715 
L 276 239.258142 
L 279.647059 241.953714 
L 283.294118 240.84835 
L 286.941176 239.893826 
L 290.588235 236.950045 
L 294.235294 240.207877 
L 297.882353 237.407355 
L 301.529412 235.942049 
L 305.176471 236.825542 
L 308.823529 222.733545 
L 312.470588 236.274057 
L 316.117647 235.433262 
L 319.764706 233.852631 
L 323.411765 233.66428 
L 327.058824 231.171824 
L 330.705882 232.623562 
L 334.352941 231.974709 
L 338 231.455946 
L 341.647059 230.008598 
L 345.294118 231.676221 
L 348.941176 220.109003 
L 352.588235 230.69097 
L 356.235294 228.596365 
L 359.882353 227.138242 
L 363.529412 238.305214 
L 367.176471 227.762354 
L 370.823529 225.809411 
L 374.470588 225.824574 
L 378.117647 225.103893 
L 381.764706 226.902404 
L 385.411765 221.59067 
L 389.058824 222.296587 
L 392.705882 224.355677 
L 396.352941 220.618588 
L 400 222.668101 
L 403.647059 221.294177 
L 407.294118 222.890371 
L 410.941176 220.708374 
L 414.588235 221.077494 
L 418.235294 224.457833 
L 421.882353 217.846798 
L 425.529412 220.081868 
L 429.176471 219.505243 
L 432.823529 220.690417 
L 436.470588 217.832831 
L 440.117647 219.458155 
L 443.764706 215.859137 
L 447.411765 217.899073 
L 451.058824 214.865507 
L 454.705882 215.771347 
L 458.352941 201.86371 
L 462 215.332792 
L 465.647059 213.15718 
L 469.294118 213.674347 
L 472.941176 215.642454 
L 476.588235 209.80637 
L 480.235294 212.03346 
L 483.882353 210.723384 
L 487.529412 204.665828 
L 491.176471 212.220613 
L 494.823529 210.393371 
L 498.470588 207.848239 
L 502.117647 209.320329 
L 505.764706 206.781583 
L 509.411765 208.139545 
L 513.058824 210.583717 
L 516.705882 207.500269 
L 520.352941 205.772788 
L 524 204.218096 
L 527.647059 206.940404 
L 531.294118 204.858568 
L 534.941176 204.474684 
L 538.588235 203.489034 
L 542.235294 202.935155 
L 545.882353 201.059627 
L 549.529412 204.371729 
L 553.176471 203.651048 
L 556.823529 206.034564 
L 560.470588 201.493393 
L 564.117647 201.993401 
L 567.764706 203.932377 
L 571.411765 204.613154 
L 575.058824 201.975044 
L 578.705882 198.182089 
L 582.352941 198.933896 
L 586 199.841731 
L 589.647059 197.440657 
L 593.294118 198.43748 
L 596.941176 198.162136 
L 600.588235 200.100315 
L 604.235294 198.509707 
L 607.882353 201.802655 
L 611.529412 196.368413 
L 615.176471 198.067961 
L 618.823529 192.801319 
L 622.470588 199.631034 
L 626.117647 197.154938 
L 629.764706 196.487729 
L 633.411765 195.109416 
L 637.058824 192.428608 
L 640.705882 196.798987 
L 644.352941 193.985296 
L 648 191.533542 
L 648 191.533542 
" style="fill:none;stroke:#ff7f0e;stroke-linecap:square;stroke-width:1.5;"/>
   </g>
   <g id="patch_9">
    <path d="M 90 272.110345 
L 90 187.696552 
" style="fill:none;stroke:#000000;stroke-linecap:square;stroke-linejoin:miter;stroke-width:0.8;"/>
   </g>
   <g id="patch_10">
    <path d="M 648 272.110345 
L 648 187.696552 
" style="fill:none;stroke:#000000;stroke-linecap:square;stroke-linejoin:miter;stroke-width:0.8;"/>
   </g>
   <g id="patch_11">
    <path d="M 90 272.110345 
L 648 272.110345 
" style="fill:none;stroke:#000000;stroke-linecap:square;stroke-linejoin:miter;stroke-width:0.8;"/>
   </g>
   <g id="patch_12">
    <path d="M 90 187.696552 
L 648 187.696552 
" style="fill:none;stroke:#000000;stroke-linecap:square;stroke-linejoin:miter;stroke-width:0.8;"/>
   </g>
   <g id="legend_2">
    <g id="patch_13">
     <path d="M 97 210.652802 
L 161.064063 210.652802 
Q 163.064063 210.652802 163.064063 208.652802 
L 163.064063 194.696552 
Q 163.064063 192.696552 161.064063 192.696552 
L 97 192.696552 
Q 95 192.696552 95 194.696552 
L 95 208.652802 
Q 95 210.652802 97 210.652802 
z
" style="fill:#ffffff;opacity:0.8;stroke:#cccccc;stroke-linejoin:miter;"/>
    </g>
    <g id="line2d_17">
     <path d="M 99 200.794989 
L 119 200.794989 
" style="fill:none;stroke:#ff7f0e;stroke-linecap:square;stroke-width:1.5;"/>
    </g>
    <g id="line2d_18"/>
    <g id="text_6">
     <!-- G_loss -->
     <defs>
      <path d="M 59.515625 10.40625 
L 59.515625 29.984375 
L 43.40625 29.984375 
L 43.40625 38.09375 
L 69.28125 38.09375 
L 69.28125 6.78125 
Q 63.578125 2.734375 56.6875 0.65625 
Q 49.8125 -1.421875 42 -1.421875 
Q 24.90625 -1.421875 15.25 8.5625 
Q 5.609375 18.5625 5.609375 36.375 
Q 5.609375 54.25 15.25 64.234375 
Q 24.90625 74.21875 42 74.21875 
Q 49.125 74.21875 55.546875 72.453125 
Q 61.96875 70.703125 67.390625 67.28125 
L 67.390625 56.78125 
Q 61.921875 61.421875 55.765625 63.765625 
Q 49.609375 66.109375 42.828125 66.109375 
Q 29.4375 66.109375 22.71875 58.640625 
Q 16.015625 51.171875 16.015625 36.375 
Q 16.015625 21.625 22.71875 14.15625 
Q 29.4375 6.6875 42.828125 6.6875 
Q 48.046875 6.6875 52.140625 7.59375 
Q 56.25 8.5 59.515625 10.40625 
z
" id="DejaVuSans-71"/>
     </defs>
     <g transform="translate(127 204.294989)scale(0.1 -0.1)">
      <use xlink:href="#DejaVuSans-71"/>
      <use x="77.490234" xlink:href="#DejaVuSans-95"/>
      <use x="127.490234" xlink:href="#DejaVuSans-108"/>
      <use x="155.273438" xlink:href="#DejaVuSans-111"/>
      <use x="216.455078" xlink:href="#DejaVuSans-115"/>
      <use x="268.554688" xlink:href="#DejaVuSans-115"/>
     </g>
    </g>
   </g>
  </g>
  <g id="axes_3">
   <g id="patch_14">
    <path d="M 90 373.406897 
L 648 373.406897 
L 648 288.993103 
L 90 288.993103 
z
" style="fill:#ffffff;"/>
   </g>
   <g id="matplotlib.axis_5">
    <g id="xtick_9">
     <g id="line2d_19">
      <g>
       <use style="stroke:#000000;stroke-width:0.8;" x="211.562549" xlink:href="#m78c961748d" y="373.406897"/>
      </g>
     </g>
    </g>
    <g id="xtick_10">
     <g id="line2d_20">
      <g>
       <use style="stroke:#000000;stroke-width:0.8;" x="333.131176" xlink:href="#m78c961748d" y="373.406897"/>
      </g>
     </g>
    </g>
    <g id="xtick_11">
     <g id="line2d_21">
      <g>
       <use style="stroke:#000000;stroke-width:0.8;" x="454.699804" xlink:href="#m78c961748d" y="373.406897"/>
      </g>
     </g>
    </g>
    <g id="xtick_12">
     <g id="line2d_22">
      <g>
       <use style="stroke:#000000;stroke-width:0.8;" x="576.268431" xlink:href="#m78c961748d" y="373.406897"/>
      </g>
     </g>
    </g>
   </g>
   <g id="matplotlib.axis_6">
    <g id="ytick_5">
     <g id="line2d_23">
      <g>
       <use style="stroke:#000000;stroke-width:0.8;" x="90" xlink:href="#m0b0f46d69e" y="360.7936"/>
      </g>
     </g>
     <g id="text_7">
      <!-- 0.2 -->
      <g transform="translate(67.096875 364.592818)scale(0.1 -0.1)">
       <use xlink:href="#DejaVuSans-48"/>
       <use x="63.623047" xlink:href="#DejaVuSans-46"/>
       <use x="95.410156" xlink:href="#DejaVuSans-50"/>
      </g>
     </g>
    </g>
    <g id="ytick_6">
     <g id="line2d_24">
      <g>
       <use style="stroke:#000000;stroke-width:0.8;" x="90" xlink:href="#m0b0f46d69e" y="338.764718"/>
      </g>
     </g>
     <g id="text_8">
      <!-- 0.4 -->
      <defs>
       <path d="M 37.796875 64.3125 
L 12.890625 25.390625 
L 37.796875 25.390625 
z
M 35.203125 72.90625 
L 47.609375 72.90625 
L 47.609375 25.390625 
L 58.015625 25.390625 
L 58.015625 17.1875 
L 47.609375 17.1875 
L 47.609375 0 
L 37.796875 0 
L 37.796875 17.1875 
L 4.890625 17.1875 
L 4.890625 26.703125 
z
" id="DejaVuSans-52"/>
      </defs>
      <g transform="translate(67.096875 342.563937)scale(0.1 -0.1)">
       <use xlink:href="#DejaVuSans-48"/>
       <use x="63.623047" xlink:href="#DejaVuSans-46"/>
       <use x="95.410156" xlink:href="#DejaVuSans-52"/>
      </g>
     </g>
    </g>
    <g id="ytick_7">
     <g id="line2d_25">
      <g>
       <use style="stroke:#000000;stroke-width:0.8;" x="90" xlink:href="#m0b0f46d69e" y="316.735836"/>
      </g>
     </g>
     <g id="text_9">
      <!-- 0.6 -->
      <defs>
       <path d="M 33.015625 40.375 
Q 26.375 40.375 22.484375 35.828125 
Q 18.609375 31.296875 18.609375 23.390625 
Q 18.609375 15.53125 22.484375 10.953125 
Q 26.375 6.390625 33.015625 6.390625 
Q 39.65625 6.390625 43.53125 10.953125 
Q 47.40625 15.53125 47.40625 23.390625 
Q 47.40625 31.296875 43.53125 35.828125 
Q 39.65625 40.375 33.015625 40.375 
z
M 52.59375 71.296875 
L 52.59375 62.3125 
Q 48.875 64.0625 45.09375 64.984375 
Q 41.3125 65.921875 37.59375 65.921875 
Q 27.828125 65.921875 22.671875 59.328125 
Q 17.53125 52.734375 16.796875 39.40625 
Q 19.671875 43.65625 24.015625 45.921875 
Q 28.375 48.1875 33.59375 48.1875 
Q 44.578125 48.1875 50.953125 41.515625 
Q 57.328125 34.859375 57.328125 23.390625 
Q 57.328125 12.15625 50.6875 5.359375 
Q 44.046875 -1.421875 33.015625 -1.421875 
Q 20.359375 -1.421875 13.671875 8.265625 
Q 6.984375 17.96875 6.984375 36.375 
Q 6.984375 53.65625 15.1875 63.9375 
Q 23.390625 74.21875 37.203125 74.21875 
Q 40.921875 74.21875 44.703125 73.484375 
Q 48.484375 72.75 52.59375 71.296875 
z
" id="DejaVuSans-54"/>
      </defs>
      <g transform="translate(67.096875 320.535055)scale(0.1 -0.1)">
       <use xlink:href="#DejaVuSans-48"/>
       <use x="63.623047" xlink:href="#DejaVuSans-46"/>
       <use x="95.410156" xlink:href="#DejaVuSans-54"/>
      </g>
     </g>
    </g>
    <g id="ytick_8">
     <g id="line2d_26">
      <g>
       <use style="stroke:#000000;stroke-width:0.8;" x="90" xlink:href="#m0b0f46d69e" y="294.706955"/>
      </g>
     </g>
     <g id="text_10">
      <!-- 0.8 -->
      <defs>
       <path d="M 31.78125 34.625 
Q 24.75 34.625 20.71875 30.859375 
Q 16.703125 27.09375 16.703125 20.515625 
Q 16.703125 13.921875 20.71875 10.15625 
Q 24.75 6.390625 31.78125 6.390625 
Q 38.8125 6.390625 42.859375 10.171875 
Q 46.921875 13.96875 46.921875 20.515625 
Q 46.921875 27.09375 42.890625 30.859375 
Q 38.875 34.625 31.78125 34.625 
z
M 21.921875 38.8125 
Q 15.578125 40.375 12.03125 44.71875 
Q 8.5 49.078125 8.5 55.328125 
Q 8.5 64.0625 14.71875 69.140625 
Q 20.953125 74.21875 31.78125 74.21875 
Q 42.671875 74.21875 48.875 69.140625 
Q 55.078125 64.0625 55.078125 55.328125 
Q 55.078125 49.078125 51.53125 44.71875 
Q 48 40.375 41.703125 38.8125 
Q 48.828125 37.15625 52.796875 32.3125 
Q 56.78125 27.484375 56.78125 20.515625 
Q 56.78125 9.90625 50.3125 4.234375 
Q 43.84375 -1.421875 31.78125 -1.421875 
Q 19.734375 -1.421875 13.25 4.234375 
Q 6.78125 9.90625 6.78125 20.515625 
Q 6.78125 27.484375 10.78125 32.3125 
Q 14.796875 37.15625 21.921875 38.8125 
z
M 18.3125 54.390625 
Q 18.3125 48.734375 21.84375 45.5625 
Q 25.390625 42.390625 31.78125 42.390625 
Q 38.140625 42.390625 41.71875 45.5625 
Q 45.3125 48.734375 45.3125 54.390625 
Q 45.3125 60.0625 41.71875 63.234375 
Q 38.140625 66.40625 31.78125 66.40625 
Q 25.390625 66.40625 21.84375 63.234375 
Q 18.3125 60.0625 18.3125 54.390625 
z
" id="DejaVuSans-56"/>
      </defs>
      <g transform="translate(67.096875 298.506174)scale(0.1 -0.1)">
       <use xlink:href="#DejaVuSans-48"/>
       <use x="63.623047" xlink:href="#DejaVuSans-46"/>
       <use x="95.410156" xlink:href="#DejaVuSans-56"/>
      </g>
     </g>
    </g>
   </g>
   <g id="line2d_27">
    <path clip-path="url(#peec9c7248e)" d="M 90 336.246817 
L 93.647059 317.408819 
L 97.294118 318.749276 
L 100.941176 318.598378 
L 104.588235 302.837815 
L 108.235294 298.255808 
L 111.882353 308.732744 
L 115.529412 300.718637 
L 119.176471 302.118572 
L 122.823529 302.810279 
L 126.470588 294.410666 
L 130.117647 298.818646 
L 133.764706 298.079577 
L 137.411765 295.975818 
L 141.058824 294.69594 
L 144.705882 292.830094 
L 148.352941 297.111407 
L 152 300.991795 
L 155.647059 299.076383 
L 159.294118 302.157123 
L 162.941176 304.471257 
L 166.588235 299.861713 
L 170.235294 314.132023 
L 173.882353 306.552986 
L 177.529412 308.949728 
L 181.176471 307.679763 
L 184.823529 320.249443 
L 188.470588 308.230485 
L 192.117647 307.83727 
L 195.764706 304.787371 
L 199.411765 299.200847 
L 203.058824 308.461788 
L 206.705882 313.820314 
L 210.352941 321.183468 
L 214 315.28964 
L 217.647059 312.643972 
L 221.294118 311.139399 
L 224.941176 311.609716 
L 228.588235 317.708411 
L 232.235294 317.583948 
L 235.882353 316.727025 
L 239.529412 307.632401 
L 243.176471 313.983328 
L 246.823529 316.827256 
L 250.470588 315.074859 
L 254.117647 321.744103 
L 257.764706 317.47821 
L 261.411765 319.167825 
L 265.058824 310.766009 
L 268.705882 321.484162 
L 272.352941 322.358708 
L 276 317.518963 
L 279.647059 311.705541 
L 283.294118 325.530867 
L 286.941176 322.030478 
L 290.588235 321.602016 
L 294.235294 323.38195 
L 297.882353 320.41466 
L 301.529412 319.42336 
L 305.176471 324.021889 
L 308.823529 327.860422 
L 312.470588 319.422258 
L 316.117647 320.673499 
L 319.764706 320.192168 
L 323.411765 319.901387 
L 327.058824 317.387891 
L 330.705882 323.829136 
L 334.352941 313.702459 
L 338 323.224443 
L 341.647059 318.03554 
L 345.294118 325.035217 
L 348.941176 326.092604 
L 352.588235 328.416651 
L 356.235294 327.070686 
L 359.882353 327.100425 
L 363.529412 351.347615 
L 367.176471 329.891484 
L 370.823529 328.238217 
L 374.470588 328.436477 
L 378.117647 329.655775 
L 381.764706 325.813938 
L 385.411765 327.080599 
L 389.058824 321.816798 
L 392.705882 331.404869 
L 396.352941 327.655553 
L 400 329.094039 
L 403.647059 314.638687 
L 407.294118 335.285256 
L 410.941176 331.963301 
L 414.588235 326.038633 
L 418.235294 332.539356 
L 421.882353 335.34143 
L 425.529412 332.767355 
L 429.176471 339.097354 
L 432.823529 333.671641 
L 436.470588 331.194493 
L 440.117647 335.657544 
L 443.764706 329.231719 
L 447.411765 332.017272 
L 451.058824 339.504888 
L 454.705882 335.779804 
L 458.352941 325.702693 
L 462 334.394188 
L 465.647059 334.15958 
L 469.294118 345.168514 
L 472.941176 333.746539 
L 476.588235 339.761525 
L 480.235294 337.596086 
L 483.882353 336.136672 
L 487.529412 314.306051 
L 491.176471 343.031712 
L 494.823529 333.346715 
L 498.470588 334.768679 
L 502.117647 341.812414 
L 505.764706 342.497512 
L 509.411765 344.905269 
L 513.058824 339.717467 
L 516.705882 345.50886 
L 520.352941 344.497734 
L 524 341.132823 
L 527.647059 357.026661 
L 531.294118 343.715709 
L 534.941176 342.078963 
L 538.588235 346.819578 
L 542.235294 369.569906 
L 545.882353 348.95638 
L 549.529412 350.218635 
L 553.176471 348.512498 
L 556.823529 346.39332 
L 560.470588 342.233165 
L 564.117647 343.470087 
L 567.764706 353.140766 
L 571.411765 353.363258 
L 575.058824 355.507769 
L 578.705882 349.546754 
L 582.352941 358.674421 
L 586 352.226567 
L 589.647059 351.469875 
L 593.294118 354.380992 
L 596.941176 356.814082 
L 600.588235 352.0988 
L 604.235294 355.560639 
L 607.882353 350.966515 
L 611.529412 361.307974 
L 615.176471 355.669682 
L 618.823529 356.732575 
L 622.470588 356.016637 
L 626.117647 358.624856 
L 629.764706 359.941082 
L 633.411765 359.518127 
L 637.058824 360.878411 
L 640.705882 360.974236 
L 644.352941 360.242877 
L 648 358.538943 
L 648 358.538943 
" style="fill:none;stroke:#2ca02c;stroke-linecap:square;stroke-width:1.5;"/>
   </g>
   <g id="patch_15">
    <path d="M 90 373.406897 
L 90 288.993103 
" style="fill:none;stroke:#000000;stroke-linecap:square;stroke-linejoin:miter;stroke-width:0.8;"/>
   </g>
   <g id="patch_16">
    <path d="M 648 373.406897 
L 648 288.993103 
" style="fill:none;stroke:#000000;stroke-linecap:square;stroke-linejoin:miter;stroke-width:0.8;"/>
   </g>
   <g id="patch_17">
    <path d="M 90 373.406897 
L 648 373.406897 
" style="fill:none;stroke:#000000;stroke-linecap:square;stroke-linejoin:miter;stroke-width:0.8;"/>
   </g>
   <g id="patch_18">
    <path d="M 90 288.993103 
L 648 288.993103 
" style="fill:none;stroke:#000000;stroke-linecap:square;stroke-linejoin:miter;stroke-width:0.8;"/>
   </g>
   <g id="legend_3">
    <g id="patch_19">
     <path d="M 563.29375 311.949353 
L 641 311.949353 
Q 643 311.949353 643 309.949353 
L 643 295.993103 
Q 643 293.993103 641 293.993103 
L 563.29375 293.993103 
Q 561.29375 293.993103 561.29375 295.993103 
L 561.29375 309.949353 
Q 561.29375 311.949353 563.29375 311.949353 
z
" style="fill:#ffffff;opacity:0.8;stroke:#cccccc;stroke-linejoin:miter;"/>
    </g>
    <g id="line2d_28">
     <path d="M 565.29375 302.091541 
L 585.29375 302.091541 
" style="fill:none;stroke:#2ca02c;stroke-linecap:square;stroke-width:1.5;"/>
    </g>
    <g id="line2d_29"/>
    <g id="text_11">
     <!-- Dx_score -->
     <defs>
      <path d="M 54.890625 54.6875 
L 35.109375 28.078125 
L 55.90625 0 
L 45.3125 0 
L 29.390625 21.484375 
L 13.484375 0 
L 2.875 0 
L 24.125 28.609375 
L 4.6875 54.6875 
L 15.28125 54.6875 
L 29.78125 35.203125 
L 44.28125 54.6875 
z
" id="DejaVuSans-120"/>
      <path d="M 48.78125 52.59375 
L 48.78125 44.1875 
Q 44.96875 46.296875 41.140625 47.34375 
Q 37.3125 48.390625 33.40625 48.390625 
Q 24.65625 48.390625 19.8125 42.84375 
Q 14.984375 37.3125 14.984375 27.296875 
Q 14.984375 17.28125 19.8125 11.734375 
Q 24.65625 6.203125 33.40625 6.203125 
Q 37.3125 6.203125 41.140625 7.25 
Q 44.96875 8.296875 48.78125 10.40625 
L 48.78125 2.09375 
Q 45.015625 0.34375 40.984375 -0.53125 
Q 36.96875 -1.421875 32.421875 -1.421875 
Q 20.0625 -1.421875 12.78125 6.34375 
Q 5.515625 14.109375 5.515625 27.296875 
Q 5.515625 40.671875 12.859375 48.328125 
Q 20.21875 56 33.015625 56 
Q 37.15625 56 41.109375 55.140625 
Q 45.0625 54.296875 48.78125 52.59375 
z
" id="DejaVuSans-99"/>
      <path d="M 41.109375 46.296875 
Q 39.59375 47.171875 37.8125 47.578125 
Q 36.03125 48 33.890625 48 
Q 26.265625 48 22.1875 43.046875 
Q 18.109375 38.09375 18.109375 28.8125 
L 18.109375 0 
L 9.078125 0 
L 9.078125 54.6875 
L 18.109375 54.6875 
L 18.109375 46.1875 
Q 20.953125 51.171875 25.484375 53.578125 
Q 30.03125 56 36.53125 56 
Q 37.453125 56 38.578125 55.875 
Q 39.703125 55.765625 41.0625 55.515625 
z
" id="DejaVuSans-114"/>
      <path d="M 56.203125 29.59375 
L 56.203125 25.203125 
L 14.890625 25.203125 
Q 15.484375 15.921875 20.484375 11.0625 
Q 25.484375 6.203125 34.421875 6.203125 
Q 39.59375 6.203125 44.453125 7.46875 
Q 49.3125 8.734375 54.109375 11.28125 
L 54.109375 2.78125 
Q 49.265625 0.734375 44.1875 -0.34375 
Q 39.109375 -1.421875 33.890625 -1.421875 
Q 20.796875 -1.421875 13.15625 6.1875 
Q 5.515625 13.8125 5.515625 26.8125 
Q 5.515625 40.234375 12.765625 48.109375 
Q 20.015625 56 32.328125 56 
Q 43.359375 56 49.78125 48.890625 
Q 56.203125 41.796875 56.203125 29.59375 
z
M 47.21875 32.234375 
Q 47.125 39.59375 43.09375 43.984375 
Q 39.0625 48.390625 32.421875 48.390625 
Q 24.90625 48.390625 20.390625 44.140625 
Q 15.875 39.890625 15.1875 32.171875 
z
" id="DejaVuSans-101"/>
     </defs>
     <g transform="translate(593.29375 305.591541)scale(0.1 -0.1)">
      <use xlink:href="#DejaVuSans-68"/>
      <use x="77.001953" xlink:href="#DejaVuSans-120"/>
      <use x="136.181641" xlink:href="#DejaVuSans-95"/>
      <use x="186.181641" xlink:href="#DejaVuSans-115"/>
      <use x="238.28125" xlink:href="#DejaVuSans-99"/>
      <use x="293.261719" xlink:href="#DejaVuSans-111"/>
      <use x="354.443359" xlink:href="#DejaVuSans-114"/>
      <use x="395.525391" xlink:href="#DejaVuSans-101"/>
     </g>
    </g>
   </g>
  </g>
  <g id="axes_4">
   <g id="patch_20">
    <path d="M 90 474.703448 
L 648 474.703448 
L 648 390.289655 
L 90 390.289655 
z
" style="fill:#ffffff;"/>
   </g>
   <g id="matplotlib.axis_7">
    <g id="xtick_13">
     <g id="line2d_30">
      <g>
       <use style="stroke:#000000;stroke-width:0.8;" x="211.562549" xlink:href="#m78c961748d" y="474.703448"/>
      </g>
     </g>
    </g>
    <g id="xtick_14">
     <g id="line2d_31">
      <g>
       <use style="stroke:#000000;stroke-width:0.8;" x="333.131176" xlink:href="#m78c961748d" y="474.703448"/>
      </g>
     </g>
    </g>
    <g id="xtick_15">
     <g id="line2d_32">
      <g>
       <use style="stroke:#000000;stroke-width:0.8;" x="454.699804" xlink:href="#m78c961748d" y="474.703448"/>
      </g>
     </g>
    </g>
    <g id="xtick_16">
     <g id="line2d_33">
      <g>
       <use style="stroke:#000000;stroke-width:0.8;" x="576.268431" xlink:href="#m78c961748d" y="474.703448"/>
      </g>
     </g>
    </g>
   </g>
   <g id="matplotlib.axis_8">
    <g id="ytick_9">
     <g id="line2d_34">
      <g>
       <use style="stroke:#000000;stroke-width:0.8;" x="90" xlink:href="#m0b0f46d69e" y="454.342078"/>
      </g>
     </g>
     <g id="text_12">
      <!-- 0.2 -->
      <g transform="translate(67.096875 458.141297)scale(0.1 -0.1)">
       <use xlink:href="#DejaVuSans-48"/>
       <use x="63.623047" xlink:href="#DejaVuSans-46"/>
       <use x="95.410156" xlink:href="#DejaVuSans-50"/>
      </g>
     </g>
    </g>
    <g id="ytick_10">
     <g id="line2d_35">
      <g>
       <use style="stroke:#000000;stroke-width:0.8;" x="90" xlink:href="#m0b0f46d69e" y="432.870691"/>
      </g>
     </g>
     <g id="text_13">
      <!-- 0.4 -->
      <g transform="translate(67.096875 436.669909)scale(0.1 -0.1)">
       <use xlink:href="#DejaVuSans-48"/>
       <use x="63.623047" xlink:href="#DejaVuSans-46"/>
       <use x="95.410156" xlink:href="#DejaVuSans-52"/>
      </g>
     </g>
    </g>
    <g id="ytick_11">
     <g id="line2d_36">
      <g>
       <use style="stroke:#000000;stroke-width:0.8;" x="90" xlink:href="#m0b0f46d69e" y="411.399303"/>
      </g>
     </g>
     <g id="text_14">
      <!-- 0.6 -->
      <g transform="translate(67.096875 415.198522)scale(0.1 -0.1)">
       <use xlink:href="#DejaVuSans-48"/>
       <use x="63.623047" xlink:href="#DejaVuSans-46"/>
       <use x="95.410156" xlink:href="#DejaVuSans-54"/>
      </g>
     </g>
    </g>
   </g>
   <g id="line2d_37">
    <path clip-path="url(#pc3361f494f)" d="M 90 426.120086 
L 93.647059 416.196011 
L 97.294118 417.240594 
L 100.941176 418.798343 
L 104.588235 401.993762 
L 108.235294 397.186318 
L 111.882353 408.21617 
L 115.529412 400.86222 
L 119.176471 401.572923 
L 122.823529 402.833293 
L 126.470588 394.126646 
L 130.117647 398.727964 
L 133.764706 398.189032 
L 137.411765 395.823959 
L 141.058824 394.797627 
L 144.705882 394.364978 
L 148.352941 396.965163 
L 152 401.656661 
L 155.647059 398.758024 
L 159.294118 402.524105 
L 162.941176 404.986873 
L 166.588235 400.445675 
L 170.235294 416.63188 
L 173.882353 407.877996 
L 177.529412 410.218377 
L 181.176471 409.555985 
L 184.823529 422.566572 
L 188.470588 409.452922 
L 192.117647 409.547396 
L 195.764706 405.994955 
L 199.411765 399.364591 
L 203.058824 410.072372 
L 206.705882 415.721494 
L 210.352941 424.096408 
L 214 417.79885 
L 217.647059 415.021526 
L 221.294118 414.287205 
L 224.941176 415.417673 
L 228.588235 420.357166 
L 232.235294 420.290605 
L 235.882353 419.459662 
L 239.529412 411.773979 
L 243.176471 417.255624 
L 246.823529 420.278796 
L 250.470588 418.619057 
L 254.117647 424.548381 
L 257.764706 421.064648 
L 261.411765 422.9391 
L 265.058824 415.665668 
L 268.705882 425.607994 
L 272.352941 427.641334 
L 276 422.723313 
L 279.647059 416.504126 
L 283.294118 430.140604 
L 286.941176 426.517307 
L 290.588235 426.986457 
L 294.235294 428.056806 
L 297.882353 426.326212 
L 301.529412 426.318697 
L 305.176471 429.924816 
L 308.823529 436.601344 
L 312.470588 425.992332 
L 316.117647 427.920462 
L 319.764706 428.693432 
L 323.411765 427.302086 
L 327.058824 425.510299 
L 330.705882 431.907699 
L 334.352941 423.201051 
L 338 431.190555 
L 341.647059 426.552735 
L 345.294118 432.823454 
L 348.941176 436.145077 
L 352.588235 436.763453 
L 356.235294 435.997998 
L 359.882353 436.482178 
L 363.529412 454.800492 
L 367.176471 439.417317 
L 370.823529 437.940085 
L 374.470588 439.013655 
L 378.117647 439.199382 
L 381.764706 436.105355 
L 385.411765 438.253567 
L 389.058824 432.475617 
L 392.705882 441.450657 
L 396.352941 438.681922 
L 400 439.26487 
L 403.647059 426.248915 
L 407.294118 445.309065 
L 410.941176 442.918226 
L 414.588235 437.333519 
L 418.235294 446.539376 
L 421.882353 446.775561 
L 425.529412 443.654695 
L 429.176471 449.258727 
L 432.823529 447.472308 
L 436.470588 443.795333 
L 440.117647 448.280705 
L 443.764706 443.551632 
L 447.411765 444.710014 
L 451.058824 451.24161 
L 454.705882 448.260308 
L 458.352941 442.584346 
L 462 447.859866 
L 465.647059 447.510956 
L 469.294118 455.67223 
L 472.941176 447.459425 
L 476.588235 452.944291 
L 480.235294 450.83258 
L 483.882353 451.2298 
L 487.529412 434.21802 
L 491.176471 455.287893 
L 494.823529 448.319354 
L 498.470588 450.633969 
L 502.117647 454.961528 
L 505.764706 456.014699 
L 509.411765 457.773206 
L 513.058824 454.852023 
L 516.705882 457.144094 
L 520.352941 457.924579 
L 524 455.447854 
L 527.647059 466.091221 
L 531.294118 457.198846 
L 534.941176 456.402258 
L 538.588235 460.073865 
L 542.235294 470.866458 
L 545.882353 461.309543 
L 549.529412 461.932213 
L 553.176471 461.014312 
L 556.823529 459.892432 
L 560.470588 456.919718 
L 564.117647 458.716873 
L 567.764706 465.385886 
L 571.411765 464.303728 
L 575.058824 465.686485 
L 578.705882 462.823276 
L 582.352941 467.719826 
L 586 464.139472 
L 589.647059 464.241461 
L 593.294118 465.641396 
L 596.941176 466.458382 
L 600.588235 464.456175 
L 604.235294 466.173886 
L 607.882353 463.201172 
L 611.529412 469.05964 
L 615.176471 466.522796 
L 618.823529 467.210954 
L 622.470588 468.129929 
L 626.117647 467.535172 
L 629.764706 468.999521 
L 633.411765 468.675303 
L 637.058824 470.031221 
L 640.705882 469.521275 
L 644.352941 469.162703 
L 648 468.66242 
L 648 468.66242 
" style="fill:none;stroke:#d62728;stroke-linecap:square;stroke-width:1.5;"/>
   </g>
   <g id="patch_21">
    <path d="M 90 474.703448 
L 90 390.289655 
" style="fill:none;stroke:#000000;stroke-linecap:square;stroke-linejoin:miter;stroke-width:0.8;"/>
   </g>
   <g id="patch_22">
    <path d="M 648 474.703448 
L 648 390.289655 
" style="fill:none;stroke:#000000;stroke-linecap:square;stroke-linejoin:miter;stroke-width:0.8;"/>
   </g>
   <g id="patch_23">
    <path d="M 90 474.703448 
L 648 474.703448 
" style="fill:none;stroke:#000000;stroke-linecap:square;stroke-linejoin:miter;stroke-width:0.8;"/>
   </g>
   <g id="patch_24">
    <path d="M 90 390.289655 
L 648 390.289655 
" style="fill:none;stroke:#000000;stroke-linecap:square;stroke-linejoin:miter;stroke-width:0.8;"/>
   </g>
   <g id="legend_4">
    <g id="patch_25">
     <path d="M 555.101562 413.245905 
L 641 413.245905 
Q 643 413.245905 643 411.245905 
L 643 397.289655 
Q 643 395.289655 641 395.289655 
L 555.101562 395.289655 
Q 553.101562 395.289655 553.101562 397.289655 
L 553.101562 411.245905 
Q 553.101562 413.245905 555.101562 413.245905 
z
" style="fill:#ffffff;opacity:0.8;stroke:#cccccc;stroke-linejoin:miter;"/>
    </g>
    <g id="line2d_38">
     <path d="M 557.101562 403.388093 
L 577.101562 403.388093 
" style="fill:none;stroke:#d62728;stroke-linecap:square;stroke-width:1.5;"/>
    </g>
    <g id="line2d_39"/>
    <g id="text_15">
     <!-- DG_score1 -->
     <g transform="translate(585.101562 406.888093)scale(0.1 -0.1)">
      <use xlink:href="#DejaVuSans-68"/>
      <use x="77.001953" xlink:href="#DejaVuSans-71"/>
      <use x="154.492188" xlink:href="#DejaVuSans-95"/>
      <use x="204.492188" xlink:href="#DejaVuSans-115"/>
      <use x="256.591797" xlink:href="#DejaVuSans-99"/>
      <use x="311.572266" xlink:href="#DejaVuSans-111"/>
      <use x="372.753906" xlink:href="#DejaVuSans-114"/>
      <use x="413.835938" xlink:href="#DejaVuSans-101"/>
      <use x="475.359375" xlink:href="#DejaVuSans-49"/>
     </g>
    </g>
   </g>
  </g>
  <g id="axes_5">
   <g id="patch_26">
    <path d="M 90 576 
L 648 576 
L 648 491.586207 
L 90 491.586207 
z
" style="fill:#ffffff;"/>
   </g>
   <g id="matplotlib.axis_9">
    <g id="xtick_17">
     <g id="line2d_40">
      <g>
       <use style="stroke:#000000;stroke-width:0.8;" x="211.562549" xlink:href="#m78c961748d" y="576"/>
      </g>
     </g>
     <g id="text_16">
      <!-- 20000 -->
      <g transform="translate(182.972272 605.48669)rotate(-30)scale(0.1 -0.1)">
       <use xlink:href="#DejaVuSans-50"/>
       <use x="63.623047" xlink:href="#DejaVuSans-48"/>
       <use x="127.246094" xlink:href="#DejaVuSans-48"/>
       <use x="190.869141" xlink:href="#DejaVuSans-48"/>
       <use x="254.492188" xlink:href="#DejaVuSans-48"/>
      </g>
     </g>
    </g>
    <g id="xtick_18">
     <g id="line2d_41">
      <g>
       <use style="stroke:#000000;stroke-width:0.8;" x="333.131176" xlink:href="#m78c961748d" y="576"/>
      </g>
     </g>
     <g id="text_17">
      <!-- 40000 -->
      <g transform="translate(304.5409 605.48669)rotate(-30)scale(0.1 -0.1)">
       <use xlink:href="#DejaVuSans-52"/>
       <use x="63.623047" xlink:href="#DejaVuSans-48"/>
       <use x="127.246094" xlink:href="#DejaVuSans-48"/>
       <use x="190.869141" xlink:href="#DejaVuSans-48"/>
       <use x="254.492188" xlink:href="#DejaVuSans-48"/>
      </g>
     </g>
    </g>
    <g id="xtick_19">
     <g id="line2d_42">
      <g>
       <use style="stroke:#000000;stroke-width:0.8;" x="454.699804" xlink:href="#m78c961748d" y="576"/>
      </g>
     </g>
     <g id="text_18">
      <!-- 60000 -->
      <g transform="translate(426.109527 605.48669)rotate(-30)scale(0.1 -0.1)">
       <use xlink:href="#DejaVuSans-54"/>
       <use x="63.623047" xlink:href="#DejaVuSans-48"/>
       <use x="127.246094" xlink:href="#DejaVuSans-48"/>
       <use x="190.869141" xlink:href="#DejaVuSans-48"/>
       <use x="254.492188" xlink:href="#DejaVuSans-48"/>
      </g>
     </g>
    </g>
    <g id="xtick_20">
     <g id="line2d_43">
      <g>
       <use style="stroke:#000000;stroke-width:0.8;" x="576.268431" xlink:href="#m78c961748d" y="576"/>
      </g>
     </g>
     <g id="text_19">
      <!-- 80000 -->
      <g transform="translate(547.678154 605.48669)rotate(-30)scale(0.1 -0.1)">
       <use xlink:href="#DejaVuSans-56"/>
       <use x="63.623047" xlink:href="#DejaVuSans-48"/>
       <use x="127.246094" xlink:href="#DejaVuSans-48"/>
       <use x="190.869141" xlink:href="#DejaVuSans-48"/>
       <use x="254.492188" xlink:href="#DejaVuSans-48"/>
      </g>
     </g>
    </g>
    <g id="text_20">
     <!-- Iteration number -->
     <defs>
      <path d="M 9.8125 72.90625 
L 19.671875 72.90625 
L 19.671875 0 
L 9.8125 0 
z
" id="DejaVuSans-73"/>
      <path d="M 18.3125 70.21875 
L 18.3125 54.6875 
L 36.8125 54.6875 
L 36.8125 47.703125 
L 18.3125 47.703125 
L 18.3125 18.015625 
Q 18.3125 11.328125 20.140625 9.421875 
Q 21.96875 7.515625 27.59375 7.515625 
L 36.8125 7.515625 
L 36.8125 0 
L 27.59375 0 
Q 17.1875 0 13.234375 3.875 
Q 9.28125 7.765625 9.28125 18.015625 
L 9.28125 47.703125 
L 2.6875 47.703125 
L 2.6875 54.6875 
L 9.28125 54.6875 
L 9.28125 70.21875 
z
" id="DejaVuSans-116"/>
      <path d="M 34.28125 27.484375 
Q 23.390625 27.484375 19.1875 25 
Q 14.984375 22.515625 14.984375 16.5 
Q 14.984375 11.71875 18.140625 8.90625 
Q 21.296875 6.109375 26.703125 6.109375 
Q 34.1875 6.109375 38.703125 11.40625 
Q 43.21875 16.703125 43.21875 25.484375 
L 43.21875 27.484375 
z
M 52.203125 31.203125 
L 52.203125 0 
L 43.21875 0 
L 43.21875 8.296875 
Q 40.140625 3.328125 35.546875 0.953125 
Q 30.953125 -1.421875 24.3125 -1.421875 
Q 15.921875 -1.421875 10.953125 3.296875 
Q 6 8.015625 6 15.921875 
Q 6 25.140625 12.171875 29.828125 
Q 18.359375 34.515625 30.609375 34.515625 
L 43.21875 34.515625 
L 43.21875 35.40625 
Q 43.21875 41.609375 39.140625 45 
Q 35.0625 48.390625 27.6875 48.390625 
Q 23 48.390625 18.546875 47.265625 
Q 14.109375 46.140625 10.015625 43.890625 
L 10.015625 52.203125 
Q 14.9375 54.109375 19.578125 55.046875 
Q 24.21875 56 28.609375 56 
Q 40.484375 56 46.34375 49.84375 
Q 52.203125 43.703125 52.203125 31.203125 
z
" id="DejaVuSans-97"/>
      <path d="M 9.421875 54.6875 
L 18.40625 54.6875 
L 18.40625 0 
L 9.421875 0 
z
M 9.421875 75.984375 
L 18.40625 75.984375 
L 18.40625 64.59375 
L 9.421875 64.59375 
z
" id="DejaVuSans-105"/>
      <path d="M 54.890625 33.015625 
L 54.890625 0 
L 45.90625 0 
L 45.90625 32.71875 
Q 45.90625 40.484375 42.875 44.328125 
Q 39.84375 48.1875 33.796875 48.1875 
Q 26.515625 48.1875 22.3125 43.546875 
Q 18.109375 38.921875 18.109375 30.90625 
L 18.109375 0 
L 9.078125 0 
L 9.078125 54.6875 
L 18.109375 54.6875 
L 18.109375 46.1875 
Q 21.34375 51.125 25.703125 53.5625 
Q 30.078125 56 35.796875 56 
Q 45.21875 56 50.046875 50.171875 
Q 54.890625 44.34375 54.890625 33.015625 
z
" id="DejaVuSans-110"/>
      <path id="DejaVuSans-32"/>
      <path d="M 8.5 21.578125 
L 8.5 54.6875 
L 17.484375 54.6875 
L 17.484375 21.921875 
Q 17.484375 14.15625 20.5 10.265625 
Q 23.53125 6.390625 29.59375 6.390625 
Q 36.859375 6.390625 41.078125 11.03125 
Q 45.3125 15.671875 45.3125 23.6875 
L 45.3125 54.6875 
L 54.296875 54.6875 
L 54.296875 0 
L 45.3125 0 
L 45.3125 8.40625 
Q 42.046875 3.421875 37.71875 1 
Q 33.40625 -1.421875 27.6875 -1.421875 
Q 18.265625 -1.421875 13.375 4.4375 
Q 8.5 10.296875 8.5 21.578125 
z
M 31.109375 56 
z
" id="DejaVuSans-117"/>
      <path d="M 52 44.1875 
Q 55.375 50.25 60.0625 53.125 
Q 64.75 56 71.09375 56 
Q 79.640625 56 84.28125 50.015625 
Q 88.921875 44.046875 88.921875 33.015625 
L 88.921875 0 
L 79.890625 0 
L 79.890625 32.71875 
Q 79.890625 40.578125 77.09375 44.375 
Q 74.3125 48.1875 68.609375 48.1875 
Q 61.625 48.1875 57.5625 43.546875 
Q 53.515625 38.921875 53.515625 30.90625 
L 53.515625 0 
L 44.484375 0 
L 44.484375 32.71875 
Q 44.484375 40.625 41.703125 44.40625 
Q 38.921875 48.1875 33.109375 48.1875 
Q 26.21875 48.1875 22.15625 43.53125 
Q 18.109375 38.875 18.109375 30.90625 
L 18.109375 0 
L 9.078125 0 
L 9.078125 54.6875 
L 18.109375 54.6875 
L 18.109375 46.1875 
Q 21.1875 51.21875 25.484375 53.609375 
Q 29.78125 56 35.6875 56 
Q 41.65625 56 45.828125 52.96875 
Q 50 49.953125 52 44.1875 
z
" id="DejaVuSans-109"/>
      <path d="M 48.6875 27.296875 
Q 48.6875 37.203125 44.609375 42.84375 
Q 40.53125 48.484375 33.40625 48.484375 
Q 26.265625 48.484375 22.1875 42.84375 
Q 18.109375 37.203125 18.109375 27.296875 
Q 18.109375 17.390625 22.1875 11.75 
Q 26.265625 6.109375 33.40625 6.109375 
Q 40.53125 6.109375 44.609375 11.75 
Q 48.6875 17.390625 48.6875 27.296875 
z
M 18.109375 46.390625 
Q 20.953125 51.265625 25.265625 53.625 
Q 29.59375 56 35.59375 56 
Q 45.5625 56 51.78125 48.09375 
Q 58.015625 40.1875 58.015625 27.296875 
Q 58.015625 14.40625 51.78125 6.484375 
Q 45.5625 -1.421875 35.59375 -1.421875 
Q 29.59375 -1.421875 25.265625 0.953125 
Q 20.953125 3.328125 18.109375 8.203125 
L 18.109375 0 
L 9.078125 0 
L 9.078125 75.984375 
L 18.109375 75.984375 
z
" id="DejaVuSans-98"/>
     </defs>
     <g transform="translate(326.688281 618.88619)scale(0.1 -0.1)">
      <use xlink:href="#DejaVuSans-73"/>
      <use x="29.492188" xlink:href="#DejaVuSans-116"/>
      <use x="68.701172" xlink:href="#DejaVuSans-101"/>
      <use x="130.224609" xlink:href="#DejaVuSans-114"/>
      <use x="171.337891" xlink:href="#DejaVuSans-97"/>
      <use x="232.617188" xlink:href="#DejaVuSans-116"/>
      <use x="271.826172" xlink:href="#DejaVuSans-105"/>
      <use x="299.609375" xlink:href="#DejaVuSans-111"/>
      <use x="360.791016" xlink:href="#DejaVuSans-110"/>
      <use x="424.169922" xlink:href="#DejaVuSans-32"/>
      <use x="455.957031" xlink:href="#DejaVuSans-110"/>
      <use x="519.335938" xlink:href="#DejaVuSans-117"/>
      <use x="582.714844" xlink:href="#DejaVuSans-109"/>
      <use x="680.126953" xlink:href="#DejaVuSans-98"/>
      <use x="743.603516" xlink:href="#DejaVuSans-101"/>
      <use x="805.126953" xlink:href="#DejaVuSans-114"/>
     </g>
    </g>
   </g>
   <g id="matplotlib.axis_10">
    <g id="ytick_12">
     <g id="line2d_44">
      <g>
       <use style="stroke:#000000;stroke-width:0.8;" x="90" xlink:href="#m0b0f46d69e" y="555.226583"/>
      </g>
     </g>
     <g id="text_21">
      <!-- 0.2 -->
      <g transform="translate(67.096875 559.025802)scale(0.1 -0.1)">
       <use xlink:href="#DejaVuSans-48"/>
       <use x="63.623047" xlink:href="#DejaVuSans-46"/>
       <use x="95.410156" xlink:href="#DejaVuSans-50"/>
      </g>
     </g>
    </g>
    <g id="ytick_13">
     <g id="line2d_45">
      <g>
       <use style="stroke:#000000;stroke-width:0.8;" x="90" xlink:href="#m0b0f46d69e" y="532.752556"/>
      </g>
     </g>
     <g id="text_22">
      <!-- 0.4 -->
      <g transform="translate(67.096875 536.551775)scale(0.1 -0.1)">
       <use xlink:href="#DejaVuSans-48"/>
       <use x="63.623047" xlink:href="#DejaVuSans-46"/>
       <use x="95.410156" xlink:href="#DejaVuSans-52"/>
      </g>
     </g>
    </g>
    <g id="ytick_14">
     <g id="line2d_46">
      <g>
       <use style="stroke:#000000;stroke-width:0.8;" x="90" xlink:href="#m0b0f46d69e" y="510.278529"/>
      </g>
     </g>
     <g id="text_23">
      <!-- 0.6 -->
      <g transform="translate(67.096875 514.077748)scale(0.1 -0.1)">
       <use xlink:href="#DejaVuSans-48"/>
       <use x="63.623047" xlink:href="#DejaVuSans-46"/>
       <use x="95.410156" xlink:href="#DejaVuSans-54"/>
      </g>
     </g>
    </g>
   </g>
   <g id="line2d_47">
    <path clip-path="url(#pfae830918b)" d="M 90 509.128983 
L 93.647059 527.493634 
L 97.294118 524.586618 
L 100.941176 517.648886 
L 104.588235 507.23667 
L 108.235294 501.165311 
L 111.882353 512.383222 
L 115.529412 504.837567 
L 119.176471 504.943195 
L 122.823529 507.246783 
L 126.470588 499.979806 
L 130.117647 509.269445 
L 133.764706 501.375443 
L 137.411765 497.848145 
L 141.058824 495.423197 
L 144.705882 525.139479 
L 148.352941 499.180855 
L 152 504.270098 
L 155.647059 515.096961 
L 159.294118 505.81294 
L 162.941176 507.651315 
L 166.588235 502.96211 
L 170.235294 521.66949 
L 173.882353 510.395394 
L 177.529412 513.269822 
L 181.176471 515.789161 
L 184.823529 508.474989 
L 188.470588 512.89563 
L 192.117647 511.842721 
L 195.764706 510.216726 
L 199.411765 529.903973 
L 203.058824 513.229369 
L 206.705882 518.19051 
L 210.352941 527.849847 
L 214 520.627819 
L 217.647059 517.736535 
L 221.294118 517.562361 
L 224.941176 513.09902 
L 228.588235 523.679791 
L 232.235294 523.696647 
L 235.882353 523.602256 
L 239.529412 514.381163 
L 243.176471 519.57491 
L 246.823529 523.203342 
L 250.470588 523.62473 
L 254.117647 512.873156 
L 257.764706 523.447185 
L 261.411765 526.771094 
L 265.058824 521.559367 
L 268.705882 529.146598 
L 272.352941 531.038911 
L 276 528.731953 
L 279.647059 525.662001 
L 283.294118 533.106522 
L 286.941176 529.588213 
L 290.588235 529.081424 
L 294.235294 520.523314 
L 297.882353 528.688128 
L 301.529412 529.717439 
L 305.176471 529.730923 
L 308.823529 510.581929 
L 312.470588 528.511707 
L 316.117647 531.174879 
L 319.764706 525.636155 
L 323.411765 530.214115 
L 327.058824 528.422935 
L 330.705882 535.083113 
L 334.352941 528.239771 
L 338 533.560497 
L 341.647059 529.002765 
L 345.294118 533.83468 
L 348.941176 527.709384 
L 352.588235 538.348589 
L 356.235294 537.514802 
L 359.882353 542.078153 
L 363.529412 546.243714 
L 367.176471 541.779249 
L 370.823529 539.526228 
L 374.470588 543.999683 
L 378.117647 541.769136 
L 381.764706 537.709203 
L 385.411765 540.12516 
L 389.058824 537.50806 
L 392.705882 543.48278 
L 396.352941 541.507313 
L 400 538.454217 
L 403.647059 526.205872 
L 407.294118 546.698813 
L 410.941176 545.834687 
L 414.588235 543.451316 
L 418.235294 543.571553 
L 421.882353 548.951835 
L 425.529412 545.46836 
L 429.176471 550.593562 
L 432.823529 562.440745 
L 436.470588 546.413393 
L 440.117647 549.430531 
L 443.764706 547.176386 
L 447.411765 546.127973 
L 451.058824 553.774761 
L 454.705882 552.403845 
L 458.352941 546.707803 
L 462 549.708086 
L 465.647059 549.329398 
L 469.294118 556.610983 
L 472.941176 549.980021 
L 476.588235 554.378188 
L 480.235294 552.636451 
L 483.882353 555.424354 
L 487.529412 560.064117 
L 491.176471 556.3795 
L 494.823529 549.621561 
L 498.470588 553.114024 
L 502.117647 557.30543 
L 505.764706 557.881889 
L 513.058824 558.393173 
L 516.705882 559.520246 
L 520.352941 559.865222 
L 524 557.992012 
L 527.647059 562.520528 
L 531.294118 559.353938 
L 534.941176 557.359368 
L 538.588235 562.425014 
L 542.235294 563.22846 
L 545.882353 562.716052 
L 549.529412 564.284739 
L 556.823529 561.863163 
L 560.470588 559.034807 
L 564.117647 560.432691 
L 567.764706 565.421925 
L 571.411765 566.177052 
L 575.058824 567.735626 
L 578.705882 565.583738 
L 582.352941 570.103265 
L 586 566.012992 
L 589.647059 566.51641 
L 593.294118 567.14793 
L 596.941176 570.076296 
L 600.588235 566.054569 
L 604.235294 568.107571 
L 607.882353 567.038931 
L 611.529412 570.938175 
L 615.176471 568.490753 
L 618.823529 568.716617 
L 622.470588 568.468279 
L 626.117647 569.363869 
L 629.764706 570.905588 
L 633.411765 570.501055 
L 637.058824 572.163009 
L 640.705882 571.302254 
L 644.352941 570.987618 
L 648 571.887703 
L 648 571.887703 
" style="fill:none;stroke:#9467bd;stroke-linecap:square;stroke-width:1.5;"/>
   </g>
   <g id="patch_27">
    <path d="M 90 576 
L 90 491.586207 
" style="fill:none;stroke:#000000;stroke-linecap:square;stroke-linejoin:miter;stroke-width:0.8;"/>
   </g>
   <g id="patch_28">
    <path d="M 648 576 
L 648 491.586207 
" style="fill:none;stroke:#000000;stroke-linecap:square;stroke-linejoin:miter;stroke-width:0.8;"/>
   </g>
   <g id="patch_29">
    <path d="M 90 576 
L 648 576 
" style="fill:none;stroke:#000000;stroke-linecap:square;stroke-linejoin:miter;stroke-width:0.8;"/>
   </g>
   <g id="patch_30">
    <path d="M 90 491.586207 
L 648 491.586207 
" style="fill:none;stroke:#000000;stroke-linecap:square;stroke-linejoin:miter;stroke-width:0.8;"/>
   </g>
   <g id="legend_5">
    <g id="patch_31">
     <path d="M 555.101562 514.542457 
L 641 514.542457 
Q 643 514.542457 643 512.542457 
L 643 498.586207 
Q 643 496.586207 641 496.586207 
L 555.101562 496.586207 
Q 553.101562 496.586207 553.101562 498.586207 
L 553.101562 512.542457 
Q 553.101562 514.542457 555.101562 514.542457 
z
" style="fill:#ffffff;opacity:0.8;stroke:#cccccc;stroke-linejoin:miter;"/>
    </g>
    <g id="line2d_48">
     <path d="M 557.101562 504.684644 
L 577.101562 504.684644 
" style="fill:none;stroke:#9467bd;stroke-linecap:square;stroke-width:1.5;"/>
    </g>
    <g id="line2d_49"/>
    <g id="text_24">
     <!-- DG_score2 -->
     <g transform="translate(585.101562 508.184644)scale(0.1 -0.1)">
      <use xlink:href="#DejaVuSans-68"/>
      <use x="77.001953" xlink:href="#DejaVuSans-71"/>
      <use x="154.492188" xlink:href="#DejaVuSans-95"/>
      <use x="204.492188" xlink:href="#DejaVuSans-115"/>
      <use x="256.591797" xlink:href="#DejaVuSans-99"/>
      <use x="311.572266" xlink:href="#DejaVuSans-111"/>
      <use x="372.753906" xlink:href="#DejaVuSans-114"/>
      <use x="413.835938" xlink:href="#DejaVuSans-101"/>
      <use x="475.359375" xlink:href="#DejaVuSans-50"/>
     </g>
    </g>
   </g>
  </g>
 </g>
 <defs>
  <clipPath id="p24e2dc9347">
   <rect height="84.413793" width="558" x="90" y="86.4"/>
  </clipPath>
  <clipPath id="p423814fc72">
   <rect height="84.413793" width="558" x="90" y="187.696552"/>
  </clipPath>
  <clipPath id="peec9c7248e">
   <rect height="84.413793" width="558" x="90" y="288.993103"/>
  </clipPath>
  <clipPath id="pc3361f494f">
   <rect height="84.413793" width="558" x="90" y="390.289655"/>
  </clipPath>
  <clipPath id="pfae830918b">
   <rect height="84.413793" width="558" x="90" y="491.586207"/>
  </clipPath>
 </defs>
</svg>
